<mxfile host="app.diagrams.net" modified="2021-03-12T07:37:55.434Z" agent="5.0 (Macintosh; Intel Mac OS X 10_15_6) AppleWebKit/605.1.15 (KHTML, like Gecko) Version/14.0.1 Safari/605.1.15" etag="lI1ZtAdKI4HGXr_0U_Kt" version="14.4.7" type="github">
  <diagram name="Page-1" id="9361dd3d-8414-5efd-6122-117bd74ce7a7">
    <mxGraphModel dx="1395" dy="902" grid="1" gridSize="10" guides="1" tooltips="1" connect="1" arrows="1" fold="1" page="0" pageScale="1.5" pageWidth="826" pageHeight="1169" background="#ffffff" math="0" shadow="0">
      <root>
        <mxCell id="0" />
        <mxCell id="1" parent="0" />
        <mxCell id="zW0qlNNWuYscp80eeql9-92" value="" style="edgeStyle=none;endArrow=none;dashed=1" edge="1" parent="1">
          <mxGeometry x="543.5111805555559" y="369.6971450617284" width="100" height="100" as="geometry">
            <mxPoint x="514.44" y="310" as="sourcePoint" />
            <mxPoint x="514.44" y="494.16666666666674" as="targetPoint" />
          </mxGeometry>
        </mxCell>
        <mxCell id="2" value="" style="fillColor=#CC4125;strokeColor=#660000" parent="1" vertex="1">
          <mxGeometry x="200" y="150" width="10" height="130" as="geometry" />
        </mxCell>
        <mxCell id="3" value="点击充值按钮 " style="edgeStyle=none;verticalLabelPosition=top;verticalAlign=bottom;labelPosition=left;align=right" parent="1" edge="1">
          <mxGeometry x="110" y="49.5" width="100" height="100" as="geometry">
            <mxPoint x="110" y="149.5" as="sourcePoint" />
            <mxPoint x="200" y="149.5" as="targetPoint" />
          </mxGeometry>
        </mxCell>
        <mxCell id="4" value="客户端" style="shadow=1;fillColor=#A2C4C9;strokeColor=none" parent="1" vertex="1">
          <mxGeometry x="152.5" y="60" width="105" height="50" as="geometry" />
        </mxCell>
        <mxCell id="6" value="" style="fillColor=#CC4125;strokeColor=#660000" parent="1" vertex="1">
          <mxGeometry x="342.5" y="180" width="10" height="100" as="geometry" />
        </mxCell>
        <mxCell id="7" value="服务端" style="shadow=1;fillColor=#A2C4C9;strokeColor=none" parent="1" vertex="1">
          <mxGeometry x="295" y="60" width="105" height="50" as="geometry" />
        </mxCell>
        <mxCell id="8" value="" style="edgeStyle=none;endArrow=none;dashed=1" parent="1" source="7" target="6" edge="1">
          <mxGeometry x="272.3350694444445" y="165" width="100" height="100" as="geometry">
            <mxPoint x="347.2588734567901" y="110" as="sourcePoint" />
            <mxPoint x="347.5761959876544" y="165" as="targetPoint" />
          </mxGeometry>
        </mxCell>
        <mxCell id="9" value="输入金额发起支付订单" style="edgeStyle=none;verticalLabelPosition=top;verticalAlign=bottom" parent="1" edge="1">
          <mxGeometry x="220" y="92" width="100" height="100" as="geometry">
            <mxPoint x="210" y="179.5" as="sourcePoint" />
            <mxPoint x="340" y="179.5" as="targetPoint" />
          </mxGeometry>
        </mxCell>
        <mxCell id="11" value="" style="edgeStyle=none;verticalLabelPosition=top;verticalAlign=bottom;endArrow=none;startArrow=classic;dashed=1" parent="1" edge="1">
          <mxGeometry x="220" y="172.25887345679013" width="100" height="100" as="geometry">
            <mxPoint x="210" y="259.7588734567901" as="sourcePoint" />
            <mxPoint x="340" y="259.7588734567901" as="targetPoint" />
          </mxGeometry>
        </mxCell>
        <mxCell id="12" value="" style="edgeStyle=none;verticalLabelPosition=top;verticalAlign=bottom;labelPosition=left;align=right;endArrow=none;startArrow=classic;dashed=1" parent="1" edge="1">
          <mxGeometry x="110" y="179.75887345679013" width="100" height="100" as="geometry">
            <mxPoint x="110" y="279.7588734567901" as="sourcePoint" />
            <mxPoint x="200" y="279.7588734567901" as="targetPoint" />
          </mxGeometry>
        </mxCell>
        <mxCell id="13" value="调用统一下单API()" style="edgeStyle=none;verticalLabelPosition=top;verticalAlign=bottom;dashed=1;exitX=0.75;exitY=0.739;exitDx=0;exitDy=0;exitPerimeter=0;" parent="1" edge="1" source="6">
          <mxGeometry width="100" height="100" as="geometry">
            <mxPoint x="399.78" y="253.99563271604936" as="sourcePoint" />
            <mxPoint x="509.78" y="253.99563271604936" as="targetPoint" />
            <mxPoint y="-4" as="offset" />
          </mxGeometry>
        </mxCell>
        <mxCell id="15" value="支付服务端" style="shadow=1;fillColor=#A2C4C9;strokeColor=none" parent="1" vertex="1">
          <mxGeometry x="462.2839506172839" y="59.99999999999997" width="105" height="50" as="geometry" />
        </mxCell>
        <mxCell id="17" value="" style="fillColor=#CC4125;strokeColor=#660000" parent="1" vertex="1">
          <mxGeometry x="509.7839506172839" y="244.3942901234568" width="10" height="130" as="geometry" />
        </mxCell>
        <mxCell id="33" value="" style="edgeStyle=elbowEdgeStyle;elbow=horizontal;endArrow=none;dashed=1" parent="1" source="4" target="2" edge="1">
          <mxGeometry x="230.00000000000003" y="310" width="100" height="100" as="geometry">
            <mxPoint x="230.00000000000003" y="410" as="sourcePoint" />
            <mxPoint x="330" y="310" as="targetPoint" />
          </mxGeometry>
        </mxCell>
        <mxCell id="42" value="" style="fillColor=#CC4125;strokeColor=#660000" parent="1" vertex="1">
          <mxGeometry x="200" y="360" width="10" height="220" as="geometry" />
        </mxCell>
        <mxCell id="43" value="返回支付二维码链接" style="edgeStyle=elbowEdgeStyle;elbow=vertical;dashed=0;verticalLabelPosition=top;verticalAlign=bottom;align=right" parent="1" source="17" target="zW0qlNNWuYscp80eeql9-96" edge="1">
          <mxGeometry width="100" height="100" as="geometry">
            <mxPoint x="500" y="310" as="sourcePoint" />
            <mxPoint x="360" y="367" as="targetPoint" />
            <Array as="points" />
            <mxPoint x="39" as="offset" />
          </mxGeometry>
        </mxCell>
        <mxCell id="44" value="" style="edgeStyle=none;dashed=1;endArrow=none" parent="1" source="2" target="42" edge="1">
          <mxGeometry x="50" y="300" width="100" height="100" as="geometry">
            <mxPoint x="50" y="400" as="sourcePoint" />
            <mxPoint x="150" y="300" as="targetPoint" />
          </mxGeometry>
        </mxCell>
        <mxCell id="46" value="" style="edgeStyle=elbowEdgeStyle;elbow=vertical;endArrow=none" parent="1" source="42" edge="1">
          <mxGeometry x="60" y="310" width="100" height="100" as="geometry">
            <mxPoint x="60" y="410" as="sourcePoint" />
            <mxPoint x="150" y="360" as="targetPoint" />
          </mxGeometry>
        </mxCell>
        <mxCell id="47" value="{100..600ms}" style="edgeStyle=elbowEdgeStyle;elbow=horizontal;startArrow=open;endArrow=open;labelPosition=left;align=right" parent="1" edge="1">
          <mxGeometry x="61.20563271604938" y="290" width="100" height="100" as="geometry">
            <mxPoint x="181.20563271604937" y="280" as="sourcePoint" />
            <mxPoint x="181.20563271604937" y="360" as="targetPoint" />
          </mxGeometry>
        </mxCell>
        <mxCell id="54" value="" style="edgeStyle=elbowEdgeStyle;elbow=vertical;dashed=1;verticalLabelPosition=bottom;verticalAlign=top;exitX=-0.098;exitY=0.596;exitDx=0;exitDy=0;exitPerimeter=0;" parent="1" edge="1">
          <mxGeometry x="530" y="579.0779320987654" width="100" height="100" as="geometry">
            <mxPoint x="508.8039506172838" y="571.6442901234568" as="sourcePoint" />
            <mxPoint x="350" y="572" as="targetPoint" />
            <Array as="points">
              <mxPoint x="400" y="572" />
              <mxPoint x="510" y="572" />
            </Array>
          </mxGeometry>
        </mxCell>
        <mxCell id="65" value="" style="edgeStyle=none;endArrow=none;dashed=1" parent="1" edge="1">
          <mxGeometry x="1174.0711805555559" y="210" width="100" height="100" as="geometry">
            <mxPoint x="1355" y="110" as="sourcePoint" />
            <mxPoint x="1355" y="539.9999999999998" as="targetPoint" />
          </mxGeometry>
        </mxCell>
        <mxCell id="66" value="" style="fillColor=#CC4125;strokeColor=#660000" parent="1" vertex="1">
          <mxGeometry x="200" y="600" width="10" height="190" as="geometry" />
        </mxCell>
        <mxCell id="71" value="发起余额充值" style="rounded=1;fontStyle=1;fillColor=#FFD966;strokeColor=none" parent="1" vertex="1">
          <mxGeometry x="50" y="20" width="150" height="30" as="geometry" />
        </mxCell>
        <mxCell id="72" value="自动跳转支付宝客户端&#xa;输入支付密码" style="rounded=1;fontStyle=1;fillColor=#FFD966;strokeColor=none" parent="1" vertex="1">
          <mxGeometry x="136.25" y="464.15999999999997" width="137.5" height="30" as="geometry" />
        </mxCell>
        <mxCell id="82" value="" style="edgeStyle=elbowEdgeStyle;elbow=vertical;endArrow=none" parent="1" edge="1">
          <mxGeometry x="59.999999999999986" y="461.0906481481482" width="100" height="100" as="geometry">
            <mxPoint x="200" y="511.09064814814815" as="sourcePoint" />
            <mxPoint x="149.99999999999997" y="511.09064814814815" as="targetPoint" />
          </mxGeometry>
        </mxCell>
        <mxCell id="83" value="" style="edgeStyle=elbowEdgeStyle;elbow=vertical;endArrow=none" parent="1" edge="1">
          <mxGeometry x="60" y="520.7106481481482" width="100" height="100" as="geometry">
            <mxPoint x="200.00000000000003" y="570.7106481481482" as="sourcePoint" />
            <mxPoint x="150" y="570.7106481481482" as="targetPoint" />
          </mxGeometry>
        </mxCell>
        <mxCell id="84" value="" style="edgeStyle=elbowEdgeStyle;elbow=vertical;endArrow=none" parent="1" edge="1">
          <mxGeometry x="59.999999999999986" y="580.7106481481482" width="100" height="100" as="geometry">
            <mxPoint x="200" y="630.7106481481482" as="sourcePoint" />
            <mxPoint x="149.99999999999997" y="630.7106481481482" as="targetPoint" />
          </mxGeometry>
        </mxCell>
        <mxCell id="85" value="" style="edgeStyle=elbowEdgeStyle;elbow=vertical;endArrow=none" parent="1" edge="1">
          <mxGeometry x="49.99999999999999" y="649.4328703703704" width="100" height="100" as="geometry">
            <mxPoint x="190.00000000000003" y="699.4328703703704" as="sourcePoint" />
            <mxPoint x="140" y="699.4328703703704" as="targetPoint" />
          </mxGeometry>
        </mxCell>
        <mxCell id="86" value="" style="edgeStyle=elbowEdgeStyle;elbow=vertical;endArrow=none" parent="1" edge="1">
          <mxGeometry x="49.99999999999993" y="709.9884259259259" width="100" height="100" as="geometry">
            <mxPoint x="189.99999999999994" y="759.9884259259259" as="sourcePoint" />
            <mxPoint x="139.99999999999994" y="759.9884259259259" as="targetPoint" />
          </mxGeometry>
        </mxCell>
        <mxCell id="87" value="{5..50ms}" style="edgeStyle=elbowEdgeStyle;elbow=horizontal;startArrow=open;endArrow=open;labelPosition=left;align=right" parent="1" edge="1">
          <mxGeometry y="21" width="100" height="100" as="geometry">
            <mxPoint x="161" y="511" as="sourcePoint" />
            <mxPoint x="161.44675925925927" y="570.1666666666667" as="targetPoint" />
            <mxPoint x="-11" y="21" as="offset" />
          </mxGeometry>
        </mxCell>
        <mxCell id="88" value="{1..500ms}" style="edgeStyle=elbowEdgeStyle;elbow=horizontal;startArrow=open;endArrow=open;labelPosition=left;align=right" parent="1" edge="1">
          <mxGeometry x="42.89351851851853" y="581" width="100" height="100" as="geometry">
            <mxPoint x="161.44675925925927" y="571" as="sourcePoint" />
            <mxPoint x="161.44675925925927" y="631" as="targetPoint" />
          </mxGeometry>
        </mxCell>
        <mxCell id="89" value="{10..50ms}" style="edgeStyle=elbowEdgeStyle;elbow=horizontal;startArrow=open;endArrow=open;labelPosition=left;align=right" parent="1" edge="1">
          <mxGeometry width="100" height="100" as="geometry">
            <mxPoint x="153.94675925925927" y="700.2777777777778" as="sourcePoint" />
            <mxPoint x="153.94675925925927" y="760.2777777777778" as="targetPoint" />
            <mxPoint x="-4.236111111111107" y="-0.2777777777777883" as="offset" />
          </mxGeometry>
        </mxCell>
        <mxCell id="zW0qlNNWuYscp80eeql9-90" value="" style="edgeStyle=none;endArrow=none;dashed=1;exitX=0.5;exitY=1;exitDx=0;exitDy=0;" edge="1" parent="1" source="15">
          <mxGeometry x="440.75506944444453" y="165.39" width="100" height="100" as="geometry">
            <mxPoint x="514" y="120" as="sourcePoint" />
            <mxPoint x="514" y="244" as="targetPoint" />
          </mxGeometry>
        </mxCell>
        <mxCell id="zW0qlNNWuYscp80eeql9-91" value="" style="fillColor=#CC4125;strokeColor=#660000" vertex="1" parent="1">
          <mxGeometry x="509.78395061728384" y="464.1642901234568" width="10" height="130" as="geometry" />
        </mxCell>
        <mxCell id="zW0qlNNWuYscp80eeql9-93" value="" style="fillColor=#CC4125;strokeColor=#660000" vertex="1" parent="1">
          <mxGeometry x="342.5" y="560" width="10" height="100" as="geometry" />
        </mxCell>
        <mxCell id="zW0qlNNWuYscp80eeql9-95" value="" style="edgeStyle=none;endArrow=none;dashed=1;verticalAlign=bottom;" edge="1" parent="1" source="zW0qlNNWuYscp80eeql9-96">
          <mxGeometry x="376.33118055555593" y="339.6971450617284" width="100" height="100" as="geometry">
            <mxPoint x="347.26000000000005" y="280" as="sourcePoint" />
            <mxPoint x="348" y="560" as="targetPoint" />
          </mxGeometry>
        </mxCell>
        <mxCell id="zW0qlNNWuYscp80eeql9-96" value="" style="fillColor=#CC4125;strokeColor=#660000" vertex="1" parent="1">
          <mxGeometry x="342.5" y="360" width="10" height="100" as="geometry" />
        </mxCell>
        <mxCell id="zW0qlNNWuYscp80eeql9-97" value="" style="edgeStyle=none;endArrow=none;dashed=1;entryX=0.5;entryY=0;entryDx=0;entryDy=0;" edge="1" parent="1" target="zW0qlNNWuYscp80eeql9-96">
          <mxGeometry x="376.33118055555593" y="339.6971450617284" width="100" height="100" as="geometry">
            <mxPoint x="347.26" y="280" as="sourcePoint" />
            <mxPoint x="347.5" y="560" as="targetPoint" />
          </mxGeometry>
        </mxCell>
        <mxCell id="zW0qlNNWuYscp80eeql9-98" value="发起支付请求" style="edgeStyle=elbowEdgeStyle;elbow=vertical;dashed=0;verticalLabelPosition=top;verticalAlign=bottom;align=right;entryX=0.106;entryY=0.797;entryDx=0;entryDy=0;entryPerimeter=0;" edge="1" parent="1" target="zW0qlNNWuYscp80eeql9-96">
          <mxGeometry width="100" height="100" as="geometry">
            <mxPoint x="370" y="370" as="sourcePoint" />
            <mxPoint x="360" y="440" as="targetPoint" />
            <Array as="points">
              <mxPoint x="350" y="440" />
              <mxPoint x="300" y="407" />
            </Array>
            <mxPoint x="23" y="5" as="offset" />
          </mxGeometry>
        </mxCell>
        <mxCell id="zW0qlNNWuYscp80eeql9-99" value="" style="edgeStyle=elbowEdgeStyle;elbow=vertical;dashed=1;verticalLabelPosition=bottom;verticalAlign=top;exitX=-0.003;exitY=0.9;exitDx=0;exitDy=0;exitPerimeter=0;" edge="1" parent="1" source="zW0qlNNWuYscp80eeql9-96">
          <mxGeometry x="390" y="457.4379320987654" width="100" height="100" as="geometry">
            <mxPoint x="368.8039506172838" y="450.0042901234568" as="sourcePoint" />
            <mxPoint x="210" y="450.36" as="targetPoint" />
            <Array as="points" />
          </mxGeometry>
        </mxCell>
        <mxCell id="zW0qlNNWuYscp80eeql9-100" value="回调通知客户端支付" style="text;align=left" vertex="1" parent="1">
          <mxGeometry x="220.56" y="430" width="89.44" height="26" as="geometry" />
        </mxCell>
        <mxCell id="zW0qlNNWuYscp80eeql9-101" value="回调通知服务端支付成功" style="text;align=left" vertex="1" parent="1">
          <mxGeometry x="370" y="550" width="89.44" height="26" as="geometry" />
        </mxCell>
        <mxCell id="zW0qlNNWuYscp80eeql9-102" value="写入数据库" style="edgeStyle=elbowEdgeStyle;elbow=vertical;dashed=0;verticalLabelPosition=top;verticalAlign=bottom;align=right;entryX=0.106;entryY=0.797;entryDx=0;entryDy=0;entryPerimeter=0;" edge="1" parent="1">
          <mxGeometry x="-1.0600000000000005" y="-190" width="100" height="100" as="geometry">
            <mxPoint x="368.94" y="180" as="sourcePoint" />
            <mxPoint x="342.50000000000006" y="249.69999999999993" as="targetPoint" />
            <Array as="points">
              <mxPoint x="348.94" y="250" />
              <mxPoint x="298.94" y="217" />
            </Array>
            <mxPoint x="23" y="5" as="offset" />
          </mxGeometry>
        </mxCell>
        <mxCell id="zW0qlNNWuYscp80eeql9-103" value="写入数据库" style="edgeStyle=elbowEdgeStyle;elbow=vertical;dashed=0;verticalLabelPosition=top;verticalAlign=bottom;align=right;entryX=0.106;entryY=0.797;entryDx=0;entryDy=0;entryPerimeter=0;" edge="1" parent="1">
          <mxGeometry x="8.94" y="210" width="100" height="100" as="geometry">
            <mxPoint x="378.94" y="580" as="sourcePoint" />
            <mxPoint x="352.50000000000006" y="649.6999999999999" as="targetPoint" />
            <Array as="points">
              <mxPoint x="358.94" y="650" />
              <mxPoint x="308.94" y="617" />
            </Array>
            <mxPoint x="23" y="5" as="offset" />
          </mxGeometry>
        </mxCell>
        <mxCell id="zW0qlNNWuYscp80eeql9-104" value="异步查询 是否支付成功 " style="edgeStyle=none;verticalLabelPosition=top;verticalAlign=bottom" edge="1" parent="1">
          <mxGeometry width="100" height="100" as="geometry">
            <mxPoint x="210" y="710" as="sourcePoint" />
            <mxPoint x="340" y="710" as="targetPoint" />
            <mxPoint x="-5" as="offset" />
          </mxGeometry>
        </mxCell>
        <mxCell id="zW0qlNNWuYscp80eeql9-105" value="" style="fillColor=#CC4125;strokeColor=#660000" vertex="1" parent="1">
          <mxGeometry x="342.5" y="690" width="10" height="100" as="geometry" />
        </mxCell>
        <mxCell id="zW0qlNNWuYscp80eeql9-106" value="回调通知服务端支付成功" style="text;align=left" vertex="1" parent="1">
          <mxGeometry x="210" y="740" width="89.44" height="26" as="geometry" />
        </mxCell>
        <mxCell id="zW0qlNNWuYscp80eeql9-107" value="" style="edgeStyle=elbowEdgeStyle;elbow=vertical;dashed=1;verticalLabelPosition=bottom;verticalAlign=top;exitX=0.01;exitY=0.897;exitDx=0;exitDy=0;exitPerimeter=0;" edge="1" parent="1" source="zW0qlNNWuYscp80eeql9-105">
          <mxGeometry x="391.2" y="787.4379320987654" width="100" height="100" as="geometry">
            <mxPoint x="340" y="780" as="sourcePoint" />
            <mxPoint x="211.2" y="780.36" as="targetPoint" />
            <Array as="points">
              <mxPoint x="261.2" y="780.36" />
              <mxPoint x="371.2" y="780.36" />
            </Array>
          </mxGeometry>
        </mxCell>
        <mxCell id="zW0qlNNWuYscp80eeql9-108" value="" style="edgeStyle=none;endArrow=none;dashed=1;verticalAlign=bottom;entryX=0.519;entryY=0.012;entryDx=0;entryDy=0;entryPerimeter=0;exitX=0.5;exitY=1;exitDx=0;exitDy=0;" edge="1" parent="1" source="zW0qlNNWuYscp80eeql9-93" target="zW0qlNNWuYscp80eeql9-105">
          <mxGeometry x="375.93118055555595" y="499.6971450617284" width="100" height="100" as="geometry">
            <mxPoint x="348" y="660" as="sourcePoint" />
            <mxPoint x="348" y="680" as="targetPoint" />
          </mxGeometry>
        </mxCell>
      </root>
    </mxGraphModel>
  </diagram>
</mxfile>
